<?xml version="1.0" standalone="no"?><!DOCTYPE svg PUBLIC "-//W3C//DTD SVG 1.1//EN" "http://www.w3.org/Graphics/SVG/1.1/DTD/svg11.dtd"><svg t="1713361250479" class="icon" viewBox="0 0 1024 1024" version="1.1" xmlns="http://www.w3.org/2000/svg" p-id="5193" xmlns:xlink="http://www.w3.org/1999/xlink" width="48" height="48"><path d="M887.808 0C963.072 0 1024 60.928 1024 136.192v751.616c0 75.264-60.928 136.192-136.192 136.192H136.192C60.928 1024 0 963.072 0 887.808V136.192C0 60.928 60.928 0 136.192 0h751.616M428.032 372.224l9.216-5.632c18.944-11.264 38.912-16.896 58.368-16.896 27.136 0 52.224 10.752 73.216 31.744l2.048 2.048 1.536 2.048c26.624 38.4 25.6 78.336-3.584 109.568-15.872 17.408-40.448 31.744-72.192 41.984l-11.264 3.584 9.728 7.168c25.088 18.944 56.832 35.84 93.184 50.176 16.896 6.656 25.088 25.6 18.432 42.496-5.12 12.288-16.896 20.48-30.208 20.48-4.096 0-8.192-1.024-11.776-2.56-50.688-19.968-93.184-44.544-126.464-72.704l-10.24-8.704v381.44h459.776c38.912 0 71.168-31.744 71.168-71.168V136.192c0-38.912-31.744-71.168-71.168-71.168H428.032v307.2m-291.84 586.24h226.304V590.336l-10.752 11.264c-17.92 18.944-43.008 39.936-77.312 63.488-5.632 3.584-11.776 5.632-18.432 5.632-10.752 0-20.992-5.12-26.624-13.824-5.12-7.168-6.656-15.872-5.12-24.576 1.536-8.704 6.144-15.872 13.312-20.992 27.648-19.456 50.176-37.376 65.024-52.736l8.192-8.192-11.264-2.048c-27.648-5.12-50.688-13.312-68.608-24.576-30.72-18.432-49.152-50.176-49.664-84.48 0-32.768 16.384-62.464 44.032-79.872 15.36-9.216 31.232-13.824 48.128-13.824 25.6 0 52.224 10.752 78.848 32.256l10.24 8.192V65.536H136.192c-38.912 0-71.168 31.744-71.168 71.168v751.616c0.512 38.4 32.256 70.144 71.168 70.144m203.264-469.504l2.048-4.096c2.048-4.608 4.096-8.704 6.144-12.8l1.536-3.584-2.048-2.56c-25.6-34.816-51.2-53.76-72.192-53.76-5.632 0-10.752 1.536-15.36 4.096-8.192 5.12-13.312 13.824-13.312 23.552 0 11.264 6.656 22.528 17.92 29.184 15.872 9.728 40.448 16.384 70.656 19.456l4.608 0.512m94.72-8.192l2.048 4.096 4.608-1.024c4.096-1.024 8.704-1.536 13.312-2.56 31.232-7.168 55.808-18.432 67.072-30.72 7.168-7.68 7.168-13.824 0-24.576l-0.512-0.512-0.512-0.512c-7.68-6.656-16.384-10.24-26.112-10.24-20.992 0-43.52 15.872-65.024 46.592l-1.024 1.536v6.656l1.024 1.536c1.536 3.584 3.072 6.656 5.12 9.728" p-id="5194" fill="#515151"></path></svg>