<?xml version="1.0" standalone="no"?><!DOCTYPE svg PUBLIC "-//W3C//DTD SVG 1.1//EN" "http://www.w3.org/Graphics/SVG/1.1/DTD/svg11.dtd"><svg class="icon" width="48px" height="48.00px" viewBox="0 0 1024 1024" version="1.1" xmlns="http://www.w3.org/2000/svg"><path fill="#515151" d="M705.536722 235.281379c172.799707 0 312.891143 140.083797 312.891142 312.883504v156.449391c0 172.799707-140.091436 312.891143-312.891142 312.891143H177.532441a32.582992 32.582992 0 1 1-19.557129-58.671386l15.649064-11.733361a156.449391 156.449391 0 0 0 62.30445-115.961658l0.275001-9.189605V548.164883c0-172.799707 140.083797-312.883504 312.883504-312.883504h156.449391z m70.319191 294.114711a64.696956 64.696956 0 0 0-42.944406 15.254896 76.185871 76.185871 0 0 0-14.078504 15.247258 145.386726 145.386726 0 0 0-7.078211 11.267387l-3.014313 5.634458v-23.000748c0-5.634458-2.739312-10.324746-8.211824-14.078505a35.268832 35.268832 0 0 0-20.415742-5.63293 37.586476 37.586476 0 0 0-20.887827 5.63293 17.554207 17.554207 0 0 0-8.330991 10.795303l-0.35139 3.283202v218.711063c0 5.006539 2.739312 9.542522 8.217936 13.612531 5.472513 4.063898 12.43614 6.098903 20.881715 6.098904 8.450158 0 15.409202-1.957088 20.886299-5.865153a18.168375 18.168375 0 0 0 7.901685-10.754053l0.310139-3.092229v-132.820725c0-11.889194 1.332225-21.67005 3.99362-29.333401 2.655284-7.667934 6.253209-13.612532 10.789192-17.836847a36.300084 36.300084 0 0 1 16.429761-8.683909c6.415154-1.56292 13.374198-2.345144 20.887826-2.345145 9.071965 0 16.579483 1.252781 22.522552 3.753759 5.950708 2.507089 10.56308 6.260848 13.846282 11.267387 3.287785 5.006539 5.555013 11.339193 6.809322 19.007128 0.93653 5.747513 1.52167 12.121417 1.760004 19.240878l0.113055 7.275294v130.475581c0 5.634458 2.739312 10.324746 8.217936 14.078505 5.472513 3.753759 12.591974 5.63293 21.3538 5.63293 8.760298 0 15.719342-1.879171 20.881715-5.63293a17.499207 17.499207 0 0 0 7.435712-10.795303l0.310139-3.283202V619.040187c0-15.021146-2.112922-28.163121-6.337237-39.430509a73.998088 73.998088 0 0 0-17.832263-27.923259 75.026285 75.026285 0 0 0-27.691037-16.661983 110.415812 110.415812 0 0 0-36.374945-5.628346z m-204.626447-68.994605h-145.02617c-10.014607 0-17.522124 1.880699-22.528664 5.634458-4.184593 3.125841-6.606126 8.330992-7.310433 15.563508l-0.197084 4.6139v275.50175c0 10.013079 2.655284 16.817817 7.978074 20.415742 4.260982 2.895146 9.776273 4.6139 16.663511 5.162373l5.394596 0.232223h144.554085c11.887666 0 20.339353-1.87306 25.345892-5.626819 5.006539-3.753759 7.507517-10.640997 7.507518-20.655603 0-10.008495-2.500978-16.894206-7.507518-20.647965-4.183065-3.127368-10.718914-4.965289-19.676295-5.47404l-5.669597-0.160417h-113.581375v-90.108543h108.891086c10.006968 0 17.204345-1.958616 21.586023-5.86668 4.380149-3.909592 6.56946-10.56308 6.569459-19.945185 0-9.388216-2.189311-16.197538-6.569459-20.415742-3.634592-3.521536-9.269049-5.556541-16.817817-6.141681l-4.768206-0.197084h-108.891086v-79.319351h113.581375c9.076549 0 16.11351-1.957088 21.120049-5.86668 5.008067-3.908065 7.353212-10.717386 7.043072-20.415742-0.316251-9.696828-2.739312-16.501566-7.275295-20.415742a26.697979 26.697979 0 0 0-15.253368-5.634457l-5.162373-0.232223zM470.866455 0.611113C591.883541 0.580557 702.062547 70.34058 753.799334 179.737362a369.707802 369.707802 0 0 0-48.262612-3.127369H549.087331c-205.199365 0-371.55489 166.355525-371.55489 371.55489v203.225472C69.83608 698.992039 1.498421 589.714424 1.53356 469.944007V313.502255C1.53356 140.69491 141.617357 0.611113 314.424703 0.611113h156.441752z m0 0" /></svg>