<?xml version="1.0" standalone="no"?>
<!DOCTYPE svg PUBLIC "-//W3C//DTD SVG 1.1//EN" "http://www.w3.org/Graphics/SVG/1.1/DTD/svg11.dtd"><svg t="1713357745213"
	class="icon" viewBox="0 0 1024 1024" version="1.1" xmlns="http://www.w3.org/2000/svg" p-id="4842"
	id="mx_n_1713357745214" width="128" height="128" xmlns:xlink="http://www.w3.org/1999/xlink">
	<path
		d="M670.254545 339.781818l-107.054545-242.036363-4.654545-13.963637c-9.309091-18.618182-18.618182-37.236364-46.545455-37.236363-32.581818 0-41.890909 23.272727-46.545455 37.236363L353.745455 344.436364 46.545455 367.709091c-9.309091 0-23.272727 9.309091-27.927273 23.272727-9.309091 18.618182 0 27.927273 4.654545 37.236364 9.309091 13.963636 125.672727 116.363636 125.672728 116.363636s214.109091-60.509091 223.418181-65.163636c0-23.272727 13.963636-46.545455 37.236364-55.854546 9.309091-4.654545 18.618182-4.654545 27.927273-4.654545 32.581818 0 65.163636 27.927273 65.163636 60.509091 0 9.309091-4.654545 18.618182-9.309091 27.927273 4.654545 4.654545 121.018182 130.327273 121.018182 130.327272 4.654545 0 13.963636-4.654545 18.618182-4.654545h4.654545c0-4.654545 158.254545-274.618182 158.254546-279.272727l-125.672728-13.963637z"
		fill="#515151" p-id="4843" data-spm-anchor-id="a313x.search_index.0.i8.4a813a81FOk5yq" class=""></path>
	<path
		d="M972.8 372.363636l-125.672727-9.309091s-167.563636 288.581818-167.563637 293.236364c4.654545 9.309091 9.309091 18.618182 9.309091 32.581818 0 27.927273-23.272727 51.2-51.2 51.2s-51.2-23.272727-51.2-51.2c0-4.654545 0-9.309091 4.654546-18.618182 0 0-121.018182-130.327273-125.672728-130.327272-9.309091 4.654545-13.963636 4.654545-23.272727 4.654545-18.618182 0-37.236364-9.309091-51.2-23.272727l-200.145454 60.509091s41.890909 37.236364 65.163636 55.854545c-13.963636 46.545455-60.509091 246.690909-69.818182 283.927273 0 4.654545-4.654545 18.618182 0 27.927273 0 4.654545 4.654545 4.654545 9.309091 4.654545 37.236364 9.309091 269.963636-130.327273 316.509091-158.254545l256 144.290909c9.309091 4.654545 37.236364 18.618182 55.854545 4.654545 9.309091-4.654545 9.309091-13.963636 9.309091-23.272727 0-4.654545-51.2-242.036364-60.509091-293.236364 0 0 218.763636-190.836364 228.072728-200.145454 4.654545-4.654545 9.309091-13.963636 9.309091-23.272727 0-23.272727-18.618182-27.927273-37.236364-32.581819zM158.254545 539.927273c-4.654545 0-4.654545 0 0 0-4.654545 0-4.654545 0 0 0z"
		fill="#515151" p-id="4844" data-spm-anchor-id="a313x.search_index.0.i9.4a813a81FOk5yq" class=""></path>
</svg>